<svg width="194" height="69" viewBox="0 0 194 69" fill="none" xmlns="http://www.w3.org/2000/svg">
<path d="M33.08 51.24L24.03 51.29L23.74 30.09C23.69 26.46 19.58 24.19 16.43 24.33C13.56 24.46 9.68999 26.97 9.42999 30.56C8.92999 37.41 9.24997 44.15 9.15997 51.28H0.0499878L0 17.08L8.87 16.98L9.31 20.02C12.15 16.94 15.9 15.47 20.11 15.98C23.72 16.42 27.25 18.47 29.86 21.99C33.55 16.88 39.71 14.57 45.97 16.53C52.23 18.49 56.91 24.52 56.95 31.32L57.05 51.28H47.79L47.63 30.18C47.6 26.52 43.53 24.24 40.38 24.34C37.23 24.44 33.23 27.07 33.2 30.82L33.06 51.24H33.08Z" fill="#8CB3DE"></path>
<path d="M115.77 61.74L107.02 68.56L106.99 16.94L115.61 16.92L115.69 20.26C119.7 16.75 124.74 15.13 130.18 16.13C134.78 16.97 139.25 19.79 141.93 24.39C145.59 30.68 145.47 38.59 141.43 44.7C135.67 53.42 123.91 55.27 115.73 48.17L115.77 61.74ZM123.49 24.6C117.66 25.9 114.77 31.46 116.02 36.57C117.27 41.68 122.54 44.78 127.47 43.86C133.04 42.83 136.4 37.39 135.26 32.15C134.12 26.91 129.11 23.34 123.48 24.6H123.49Z" fill="#8CB3DE"></path>
<path d="M163.65 52.49C152.92 52.05 145.45 43.59 145.72 33.54C145.99 23.49 154.43 15.59 164.91 15.85C175.39 16.11 183.38 24.54 183.13 34.58C182.88 44.62 174.5 52.94 163.65 52.49ZM163.74 44.04C169.67 44.41 173.85 39.74 174.03 34.52C174.2 29.33 170.45 24.6 164.9 24.3C159.35 24 154.95 28.38 154.71 33.61C154.47 38.84 158 43.67 163.74 44.03V44.04Z" fill="#8CB3DE"></path>
<path d="M76.29 52.52C65.61 52.15 57.97 43.59 58.29 33.57C58.61 23.43 67.05 15.59 77.57 15.88C88.09 16.17 95.94 24.58 95.71 34.58C95.47 44.81 87.17 52.89 76.3 52.51L76.29 52.52ZM76.34 44.06C82.27 44.42 86.44 39.75 86.61 34.53C86.78 29.31 83.01 24.63 77.56 24.31C72.11 23.99 67.6 28.31 67.27 33.6C66.95 38.64 70.57 43.71 76.33 44.06H76.34Z" fill="#8CB3DE"></path>
<path d="M96.8 51.4L96.76 6.92999L105.71 0L105.76 44.35L96.8 51.4Z" fill="#8CB3DE"></path>
<path d="M188.35 44.45C190.41 43.31 192.77 44.21 193.6 46.17C194.3 47.82 193.78 50.02 191.9 51.01C190.25 51.88 188.02 51.45 186.87 49.53C186.01 48.1 186.2 45.64 188.34 44.45H188.35Z" fill="#8CB3DE"></path>
</svg>